{
  "accessors": [
    {
      "bufferView": 2,
      "componentType": 5126,
      "count": 9652,
      "max": [
        0.23516550660133362,
        0.25119760632514954,
        0.107389897108078
      ],
      "min": [
        -0.23837420344352722,
        -0.27298739552497864,
        -0.09271173924207687
      ],
      "type": "VEC3"
    },
    {
      "bufferView": 2,
      "byteOffset": 115824,
      "componentType": 5126,
      "count": 9652,
      "max": [
        0.991641104221344,
        0.9993988871574402,
        0.9999896287918091
      ],
      "min": [
        -0.9916732907295227,
        -0.9994145631790161,
        -0.9999896287918091
      ],
      "type": "VEC3"
    },
    {
      "bufferView": 1,
      "componentType": 5126,
      "count": 9652,
      "max": [
        0.9999001026153564,
        0.9998509287834167
      ],
      "min": [
        9.997750021284446e-05,
        9.997750021284446e-05
      ],
      "type": "VEC2"
    },
    {
      "bufferView": 0,
      "componentType": 5125,
      "count": 57900,
      "type": "SCALAR"
    }
  ],
  "asset": {
    "extras": {
      "author": "GSXNet (https://sketchfab.com/gsxn)",
      "license": "CC-BY-NC-4.0 (http://creativecommons.org/licenses/by-nc/4.0/)",
      "source": "https://sketchfab.com/3d-models/sombrero-hat-3d-scan-e8d5a5d300024a7fa981cd294e97ce60",
      "title": "Sombrero hat 3D scan"
    },
    "generator": "Sketchfab-12.67.0",
    "version": "2.0"
  },
  "bufferViews": [
    {
      "buffer": 0,
      "byteLength": 231600,
      "name": "floatBufferViews",
      "target": 34963
    },
    {
      "buffer": 0,
      "byteLength": 77216,
      "byteOffset": 231600,
      "byteStride": 8,
      "name": "floatBufferViews",
      "target": 34962
    },
    {
      "buffer": 0,
      "byteLength": 231648,
      "byteOffset": 308816,
      "byteStride": 12,
      "name": "floatBufferViews",
      "target": 34962
    }
  ],
  "buffers": [
    {
      "byteLength": 540464,
      "uri": "scene.bin"
    }
  ],
  "extensionsUsed": [
    "KHR_materials_unlit"
  ],
  "images": [
    {
      "uri": "textures/Material_001_baseColor.png"
    }
  ],
  "materials": [
    {
      "doubleSided": true,
      "extensions": {
        "KHR_materials_unlit": {}
      },
      "name": "Material_001",
      "pbrMetallicRoughness": {
        "baseColorTexture": {
          "index": 0
        },
        "metallicFactor": 0.0
      }
    }
  ],
  "meshes": [
    {
      "name": "Material_001-material",
      "primitives": [
        {
          "attributes": {
            "NORMAL": 1,
            "POSITION": 0,
            "TEXCOORD_0": 2
          },
          "indices": 3,
          "material": 0,
          "mode": 4
        }
      ]
    }
  ],
  "nodes": [
    {
      "children": [
        1
      ],
      "matrix": [
        1.0,
        0.0,
        0.0,
        0.0,
        0.0,
        2.220446049250313e-16,
        -1.0,
        0.0,
        0.0,
        1.0,
        2.220446049250313e-16,
        0.0,
        0.0,
        0.0,
        0.0,
        1.0
      ],
      "name": "Sketchfab_model"
    },
    {
      "children": [
        2
      ],
      "name": "Collada visual scene group"
    },
    {
      "children": [
        3
      ],
      "name": "Group56366"
    },
    {
      "mesh": 0,
      "name": "Material_001-material"
    }
  ],
  "samplers": [
    {
      "magFilter": 9729,
      "minFilter": 9987,
      "wrapS": 10497,
      "wrapT": 10497
    }
  ],
  "scene": 0,
  "scenes": [
    {
      "name": "Sketchfab_Scene",
      "nodes": [
        0
      ]
    }
  ],
  "textures": [
    {
      "sampler": 0,
      "source": 0
    }
  ]
}
